<svg width="24" height="24" viewBox="0 0 24 24" fill="none" xmlns="http://www.w3.org/2000/svg">
<path d="M17 21H6C4.34 21 3 19.66 3 18V7C3 5.34 4.34 4 6 4H17C18.66 4 20 5.34 20 7V18C20 19.66 18.66 21 17 21ZM17 20C18.1 20 19 19.1 19 18V7C19 5.9 18.1 5 17 5H6C4.9 5 4 5.9 4 7V18C4 19.1 4.9 20 6 20H17Z" fill="black"/>
<path fill-rule="evenodd" clip-rule="evenodd" d="M12.2071 12.5L15.0355 9.67157L14.3284 8.96447L11.5 11.7929L8.67157 8.96447L7.96446 9.67157L10.7929 12.5L7.96446 15.3284L8.67157 16.0355L11.5 13.2071L14.3284 16.0355L15.0355 15.3284L12.2071 12.5Z" fill="black"/>
</svg>
